<?xml version="1.0" encoding="utf-8"?>
<!-- Uploaded to: SVG Repo, www.svgrepo.com, Generator: SVG Repo Mixer Tools -->
<svg fill="#000000" height="800px" width="800px" version="1.1" id="Layer_1" xmlns="http://www.w3.org/2000/svg" xmlns:xlink="http://www.w3.org/1999/xlink" 
	 viewBox="0 0 256 256" xml:space="preserve">
<g>
	<circle cx="114.2" cy="22.9" r="21"/>
	<path d="M208.6,51.9c-3.6-3.6-9.4-3.6-13,0l-23.2,23.2c0,0-18-18.1-18.2-18.2c-5.1-5.1-11.9-7.7-18.6-7.7h-21.5h0H87.9
		c-14.5,0-26.3,11.8-26.3,26.3v64.4c0,5.1,4.1,9.2,9.2,9.2s9.2-4.1,9.2-9.2V80.7c0-1.5,1.2-2.6,2.6-2.6c1.5,0,2.6,1.2,2.6,2.6v21
		v44.7V241c0,7.3,5.9,13.1,13.1,13.1s13.1-5.9,13.1-13.1v-92c0-1.5,1.2-2.6,2.6-2.6c1.5,0,2.6,1.2,2.6,2.6v92
		c0,7.3,5.9,13.1,13.1,13.1c7.3,0,13.1-5.9,13.1-13.1v-94.6h0V78.1c0-1.4,1.2-2.6,2.6-2.6c0.7,0,1.4,0.3,1.9,0.8l18.3,18.4
		c3.6,3.6,9.4,3.6,13,0l29.7-29.7C212.2,61.3,212.2,55.5,208.6,51.9z"/>
</g>
</svg>